<svg xmlns="http://www.w3.org/2000/svg" width="720" height="300" viewBox="0 0 720 300"><rect width="100%" height="100%" fill="#DDDDDD"/><path fill="#999999" d="M145.225 115.295h47.95v5.14q0 2.3-.48 3.72-.48 1.41-.96 2.37l-26.31 54.15q-.81 1.68-2.3 2.85-1.49 1.18-3.98 1.18h-8.6l26.84-53.04q.91-1.63 1.8-3 .88-1.37 1.99-2.62h-33.22q-1.1 0-1.92-.81-.81-.82-.81-1.92v-8.02Zm80.49 58.37h17.81q1.92 0 3.05 1.08t1.13 2.86v7.1h-47.62v-3.94q0-1.2.5-2.52.51-1.32 1.61-2.37l21.07-21.12q2.64-2.69 4.73-5.14 2.09-2.45 3.48-4.85 1.39-2.4 2.14-4.87.74-2.47.74-5.21 0-2.49-.72-4.39-.72-1.89-2.04-3.19t-3.17-1.94q-1.84-.65-4.15-.65-2.11 0-3.91.6-1.8.6-3.19 1.68t-2.35 2.52q-.96 1.44-1.44 3.17-.82 2.2-2.12 2.92-1.29.72-3.74.34l-6.24-1.1q.72-5 2.78-8.76 2.07-3.77 5.16-6.29 3.1-2.52 7.11-3.79 4.01-1.28 8.61-1.28 4.8 0 8.79 1.42 3.98 1.42 6.81 4.01 2.84 2.59 4.42 6.24 1.58 3.65 1.58 8.11 0 3.84-1.12 7.1-1.13 3.27-3.03 6.24-1.89 2.98-4.44 5.76-2.54 2.79-5.33 5.67l-15.64 15.98q2.25-.67 4.48-1.03 2.24-.36 4.25-.36Zm79.68-23.66q0 9.07-1.94 15.76-1.95 6.7-5.38 11.07-3.43 4.37-8.11 6.5-4.68 2.14-10.1 2.14-5.43 0-10.06-2.14-4.63-2.13-8.04-6.5-3.41-4.37-5.33-11.07-1.92-6.69-1.92-15.76 0-9.12 1.92-15.8 1.92-6.67 5.33-11.04 3.41-4.36 8.04-6.5 4.63-2.14 10.06-2.14 5.42 0 10.1 2.14t8.11 6.5q3.43 4.37 5.38 11.04 1.94 6.68 1.94 15.8Zm-12.24 0q0-7.54-1.1-12.48-1.11-4.95-2.95-7.88-1.85-2.92-4.25-4.1-2.4-1.18-4.99-1.18-2.55 0-4.92 1.18-2.38 1.18-4.2 4.1-1.83 2.93-2.91 7.88-1.08 4.94-1.08 12.48 0 7.53 1.08 12.48 1.08 4.94 2.91 7.87 1.82 2.93 4.2 4.1 2.37 1.18 4.92 1.18 2.59 0 4.99-1.18 2.4-1.17 4.25-4.1 1.84-2.93 2.95-7.87 1.1-4.95 1.1-12.48Zm88.47 18.81-6.29 6.19-16.27-16.27-16.42 16.37-6.29-6.19 16.42-16.47-15.65-15.64 6.24-6.24 15.65 15.64 15.55-15.55 6.34 6.24-15.6 15.6 16.32 16.32Zm39.93-33.07-6.24-1.1q.72-5 2.79-8.76 2.06-3.77 5.16-6.29 3.09-2.52 7.1-3.79 4.01-1.28 8.62-1.28 4.8 0 8.66 1.37 3.86 1.37 6.6 3.79 2.74 2.43 4.2 5.69 1.46 3.27 1.46 7.06 0 3.31-.74 5.83t-2.14 4.39q-1.39 1.87-3.45 3.17-2.07 1.3-4.66 2.16 6.24 1.97 9.31 6 3.08 4.03 3.08 10.13 0 5.18-1.92 9.17-1.92 3.98-5.19 6.69-3.26 2.71-7.56 4.11-4.29 1.39-9.09 1.39-5.24 0-9.12-1.2-3.89-1.2-6.77-3.55-2.88-2.36-4.9-5.76-2.01-3.41-3.45-7.88l5.23-2.16q2.06-.86 3.86-.45 1.8.41 2.62 1.94.86 1.68 1.89 3.31 1.04 1.64 2.48 2.91 1.44 1.27 3.38 2.06t4.63.79q3.03 0 5.28-.98 2.26-.98 3.77-2.57 1.51-1.58 2.26-3.53.74-1.94.74-3.91 0-2.49-.53-4.53t-2.21-3.48q-1.68-1.44-4.82-2.26-3.14-.82-8.42-.82v-8.44q4.36-.05 7.24-.82 2.88-.77 4.59-2.14 1.7-1.36 2.37-3.28.68-1.92.68-4.23 0-4.89-2.74-7.44-2.74-2.54-7.3-2.54-2.11 0-3.88.6-1.78.6-3.2 1.68-1.41 1.08-2.37 2.52-.96 1.44-1.44 3.17-.82 2.2-2.14 2.92-1.32.72-3.72.34Zm97.54 14.26q0 9.07-1.95 15.76-1.94 6.7-5.37 11.07t-8.11 6.5q-4.68 2.14-10.11 2.14-5.42 0-10.05-2.14-4.64-2.13-8.04-6.5-3.41-4.37-5.33-11.07-1.92-6.69-1.92-15.76 0-9.12 1.92-15.8 1.92-6.67 5.33-11.04 3.4-4.36 8.04-6.5 4.63-2.14 10.05-2.14 5.43 0 10.11 2.14t8.11 6.5q3.43 4.37 5.37 11.04 1.95 6.68 1.95 15.8Zm-12.24 0q0-7.54-1.11-12.48-1.1-4.95-2.95-7.88-1.85-2.92-4.25-4.1-2.4-1.18-4.99-1.18-2.54 0-4.92 1.18-2.37 1.18-4.2 4.1-1.82 2.93-2.9 7.88-1.08 4.94-1.08 12.48 0 7.53 1.08 12.48 1.08 4.94 2.9 7.87 1.83 2.93 4.2 4.1 2.38 1.18 4.92 1.18 2.59 0 4.99-1.18 2.4-1.17 4.25-4.1 1.85-2.93 2.95-7.87 1.11-4.95 1.11-12.48Zm67.92 0q0 9.07-1.95 15.76-1.94 6.7-5.37 11.07t-8.11 6.5q-4.68 2.14-10.11 2.14-5.42 0-10.05-2.14-4.64-2.13-8.04-6.5-3.41-4.37-5.33-11.07-1.92-6.69-1.92-15.76 0-9.12 1.92-15.8 1.92-6.67 5.33-11.04 3.4-4.36 8.04-6.5 4.63-2.14 10.05-2.14 5.43 0 10.11 2.14t8.11 6.5q3.43 4.37 5.37 11.04 1.95 6.68 1.95 15.8Zm-12.24 0q0-7.54-1.11-12.48-1.1-4.95-2.95-7.88-1.85-2.92-4.25-4.1-2.4-1.18-4.99-1.18-2.54 0-4.92 1.18-2.37 1.18-4.2 4.1-1.82 2.93-2.9 7.88-1.08 4.94-1.08 12.48 0 7.53 1.08 12.48 1.08 4.94 2.9 7.87 1.83 2.93 4.2 4.1 2.38 1.18 4.92 1.18 2.59 0 4.99-1.18 2.4-1.17 4.25-4.1 1.85-2.93 2.95-7.87 1.11-4.95 1.11-12.48Z"/></svg>